<svg width="24" height="25" viewBox="0 0 24 25" fill="none" xmlns="http://www.w3.org/2000/svg">
<path d="M17.25 14.75H8.25L5.97414 6.5H21L17.25 14.75Z" fill="white"/>
<path fill-rule="evenodd" clip-rule="evenodd" d="M2.25 3.5C2.25 3.08579 2.58579 2.75 3 2.75H5.25C5.59643 2.75 5.89778 2.98727 5.97906 3.32402L6.56464 5.75H21C21.255 5.75 21.4925 5.87956 21.6306 6.09396C21.7686 6.30836 21.7883 6.57821 21.6828 6.81035L17.9328 15.0604C17.8111 15.3281 17.5441 15.5 17.25 15.5H8.25C7.9126 15.5 7.61673 15.2747 7.52701 14.9494L5.25114 6.69945C5.249 6.69166 5.24697 6.68383 5.24508 6.67598L4.65949 4.25H3C2.58579 4.25 2.25 3.91421 2.25 3.5ZM6.95905 7.25L8.82112 14H16.7671L19.8352 7.25H6.95905Z" fill="white"/>
<path d="M9.75 19.25C9.75 20.0784 9.07843 20.75 8.25 20.75C7.42157 20.75 6.75 20.0784 6.75 19.25C6.75 18.4216 7.42157 17.75 8.25 17.75C9.07843 17.75 9.75 18.4216 9.75 19.25Z" fill="white"/>
<path d="M18.75 19.25C18.75 20.0784 18.0784 20.75 17.25 20.75C16.4216 20.75 15.75 20.0784 15.75 19.25C15.75 18.4216 16.4216 17.75 17.25 17.75C18.0784 17.75 18.75 18.4216 18.75 19.25Z" fill="white"/>
</svg>
