<svg width="28" height="26" viewBox="0 0 28 26" fill="none" xmlns="http://www.w3.org/2000/svg">
<path fill-rule="evenodd" clip-rule="evenodd" d="M11.9863 24.1528L14.0002 25.9861L16.0141 24.1528C23.1669 17.6667 27.8891 13.375 27.8891 8.13889C27.8891 3.84722 24.528 0.5 20.2502 0.5C18.6867 0.5 17.1639 0.970889 15.8736 1.78103C15.1695 2.2231 14.5347 2.76618 14.0002 3.38889C13.4658 2.76618 12.8309 2.2231 12.1268 1.78103C10.8365 0.970889 9.31372 0.5 7.75022 0.5C3.47244 0.5 0.111328 3.84722 0.111328 8.13889C0.111328 13.375 4.83355 17.6667 11.9863 24.1528ZM14.0002 21.4792C17.5307 18.2771 20.2097 15.8227 22.053 13.5675C23.8987 11.3095 24.5558 9.66109 24.5558 8.13889C24.5558 5.69214 22.691 3.83333 20.2502 3.83333C18.8412 3.83333 17.4337 4.50653 16.5297 5.55983L14.0002 8.50699L11.4708 5.55983C10.5667 4.50653 9.1592 3.83333 7.75022 3.83333C5.30942 3.83333 3.44466 5.69214 3.44466 8.13889C3.44466 9.66109 4.10175 11.3095 5.94742 13.5675C7.79071 15.8227 10.4698 18.277 14.0002 21.4792Z" fill="white"/>
</svg>
