<svg width="31" height="30" viewBox="0 0 31 30" fill="none" xmlns="http://www.w3.org/2000/svg">
<path d="M3.99854 6.00018H27.9985V24.0002H3.99854V6.00018Z" fill="#2D3039"/>
<path d="M12.8598 0.00393326L13.771 0.000183105H18.226L19.1385 0.00393326L20.281 0.0164338L20.8223 0.0251841L21.3448 0.0389347L21.8485 0.0564355L22.3335 0.0764363L22.801 0.102687L23.251 0.133939L23.6823 0.17144L24.0985 0.212692C26.2735 0.457702 27.7648 0.982724 28.8898 2.10777C30.0148 3.23282 30.5398 4.72288 30.7848 6.89922L30.8273 7.31549L30.8635 7.74801L30.8948 8.19802L30.9198 8.6643L30.951 9.39933L30.966 9.91185L30.9823 10.7169L30.9935 11.8607L30.9985 13.0857L30.9973 17.2271L30.9935 18.1397L30.981 19.2822L30.9723 19.8235L30.9585 20.346L30.941 20.8498L30.921 21.3348L30.8948 21.8023L30.8635 22.2524L30.826 22.6836L30.7848 23.0999C30.5398 25.275 30.0148 26.7663 28.8898 27.8913C27.7648 29.0164 26.2748 29.5414 24.0985 29.7864L23.6823 29.8289L23.2498 29.8652L22.7998 29.8964L22.3335 29.9214L21.5985 29.9527L21.086 29.9677L20.281 29.9839L19.1373 29.9952L17.9123 30.0002L13.771 29.9989L12.8585 29.9952L11.716 29.9827L11.1748 29.9739L10.6523 29.9602L10.1485 29.9427L9.66354 29.9227L9.19604 29.8964L8.74604 29.8652L8.31479 29.8277L7.89853 29.7864C5.72353 29.5414 4.23229 29.0164 3.10729 27.8913C1.98229 26.7663 1.45729 25.2762 1.21229 23.0999L1.16979 22.6836L1.13354 22.2511L1.10229 21.8011L1.07729 21.3348L1.04604 20.5998L1.03104 20.0873L1.01479 19.2822L1.00354 18.1384L0.998535 16.9134L0.999785 12.772L1.00354 11.8594L1.01604 10.7169L1.02479 10.1756L1.03854 9.65309L1.05604 9.14931L1.07604 8.6643L1.10229 8.19678L1.13354 7.74676L1.17104 7.31549L1.21229 6.89922C1.45729 4.72413 1.98229 3.23282 3.10729 2.10777C4.23229 0.982724 5.72228 0.457702 7.89853 0.212692L8.31479 0.17019L8.74728 0.133939L9.19728 0.102687L9.66354 0.0776863L10.3985 0.046435L10.911 0.0314344L11.716 0.0151837L12.8598 0.00393326ZM9.48604 9.12431H6.06104C6.22354 16.9246 10.1235 21.6123 16.961 21.6123H17.3485V17.1496C19.861 17.3997 21.761 19.2372 22.5235 21.6123H26.0735C25.0985 18.0622 22.536 16.0996 20.936 15.3496C22.536 14.4245 24.786 12.1744 25.3235 9.12431H22.0985C21.3985 11.5994 19.3235 13.8495 17.3485 14.062V9.12431H14.1235V17.7747C12.1235 17.2747 9.59854 14.8496 9.48604 9.12431Z" fill="white"/>
</svg>
