<svg width="37" height="25" viewBox="0 0 37 25" fill="none" xmlns="http://www.w3.org/2000/svg">
<path d="M11.6681 6.66685H25.0015V18.3335H11.6681V6.66685Z" fill="#2D3039"/>
<path d="M18.4528 0.000183105H18.6568C20.5407 0.0068563 30.0861 0.0735886 32.6598 0.745356C33.4378 0.950376 34.1468 1.35 34.7159 1.90429C35.285 2.45857 35.6942 3.14811 35.9027 3.904C36.1341 4.74927 36.2969 5.86814 36.4069 7.0226L36.4298 7.25394L36.4802 7.83228L36.4985 8.06362C36.6475 10.0967 36.6658 12.0008 36.6681 12.4168V12.5836C36.6658 13.0151 36.6452 15.0482 36.4802 17.1659L36.4619 17.3994L36.4412 17.6308C36.3267 18.9031 36.1571 20.1666 35.9027 21.0964C35.6948 21.8526 35.2858 22.5424 34.7166 23.0968C34.1475 23.6512 33.4381 24.0506 32.6598 24.255C30.0013 24.949 19.8967 24.998 18.4964 25.0002H18.1709C17.4628 25.0002 14.5338 24.9868 11.4628 24.8845L11.0732 24.8712L10.8738 24.8623L10.09 24.8311C7.5461 24.7221 5.12366 24.5464 4.00755 24.2528C3.22946 24.0486 2.52031 23.6495 1.95116 23.0955C1.38201 22.5416 0.972841 21.8521 0.764638 21.0964C0.510247 20.1688 0.340653 18.9031 0.226062 17.6308L0.189393 17.1659C0.0762869 15.6586 0.0136111 14.1482 0.00146484 12.637V12.3634C0.00604846 11.8851 0.0243829 10.2324 0.148141 8.4084L0.164183 8.17929L0.171059 8.06362L0.189393 7.83228L0.239813 7.25394L0.262731 7.0226C0.372738 5.86814 0.535457 4.74705 0.766929 3.904C0.974782 3.14781 1.3838 2.45794 1.95297 1.90356C2.52214 1.34918 3.23147 0.949761 4.00984 0.745356C5.12595 0.456185 7.5484 0.278233 10.0923 0.167013L10.4819 0.151442L11.0732 0.131423L11.4651 0.115852C13.6462 0.047729 15.8283 0.00991009 18.0105 0.00240761H18.4528V0.000183105ZM14.669 7.1405V17.8576L24.1961 12.5013L14.669 7.1405Z" fill="white"/>
</svg>
